<?xml version="1.0" encoding="UTF-8"?>
<svg xmlns="http://www.w3.org/2000/svg" xmlns:xlink="http://www.w3.org/1999/xlink" width="24pt" height="24pt" viewBox="0 0 24 24" version="1.1">
  <path fill="#a0a6ad" d="M 9.507812 0.015625 C 13.152344 0.214844 16.285156 2.546875 17.484375 5.871094 L 18.007812 5.871094 C 20.84375 5.875 23.292969 7.824219 23.871094 10.542969 C 24.453125 13.265625 23.007812 16.007812 20.40625 17.125 C 19.902344 17.339844 19.3125 17.113281 19.089844 16.621094 C 18.867188 16.125 19.097656 15.546875 19.605469 15.332031 C 21.335938 14.585938 22.300781 12.757812 21.914062 10.945312 C 21.527344 9.132812 19.898438 7.832031 18.003906 7.828125 L 16.746094 7.828125 C 16.289062 7.828125 15.890625 7.527344 15.777344 7.09375 C 15.015625 4.210938 12.433594 2.136719 9.394531 1.96875 C 6.351562 1.800781 3.550781 3.578125 2.460938 6.363281 C 1.375 9.144531 2.25 12.300781 4.628906 14.160156 C 5.0625 14.5 5.132812 15.113281 4.789062 15.535156 C 4.441406 15.957031 3.8125 16.027344 3.382812 15.691406 C 0.324219 13.296875 -0.804688 9.242188 0.59375 5.664062 C 1.992188 2.082031 5.597656 -0.203125 9.507812 0.015625 Z M 16.511719 22.957031 C 15.957031 22.957031 15.511719 22.519531 15.511719 21.980469 C 15.511719 21.4375 15.957031 21 16.511719 21 C 17.0625 21 17.511719 21.4375 17.511719 21.980469 C 17.511719 22.519531 17.0625 22.957031 16.511719 22.957031 Z M 16.511719 19.457031 C 15.957031 19.457031 15.511719 19.019531 15.511719 18.480469 C 15.511719 17.9375 15.957031 17.5 16.511719 17.5 C 17.0625 17.5 17.511719 17.9375 17.511719 18.480469 C 17.511719 19.019531 17.0625 19.457031 16.511719 19.457031 Z M 16.511719 16.148438 C 15.957031 16.148438 15.511719 15.710938 15.511719 15.167969 C 15.511719 14.628906 15.957031 14.191406 16.511719 14.191406 C 17.0625 14.191406 17.511719 14.628906 17.511719 15.167969 C 17.511719 15.710938 17.0625 16.148438 16.511719 16.148438 Z M 12.511719 21.457031 C 11.957031 21.457031 11.511719 21.019531 11.511719 20.480469 C 11.511719 19.9375 11.957031 19.5 12.511719 19.5 C 13.0625 19.5 13.511719 19.9375 13.511719 20.480469 C 13.511719 21.019531 13.0625 21.457031 12.511719 21.457031 Z M 12.511719 18.457031 C 11.957031 18.457031 11.511719 18.019531 11.511719 17.480469 C 11.511719 16.9375 11.957031 16.5 12.511719 16.5 C 13.0625 16.5 13.511719 16.9375 13.511719 17.480469 C 13.511719 18.019531 13.0625 18.457031 12.511719 18.457031 Z M 8.511719 22.957031 C 7.957031 22.957031 7.511719 22.519531 7.511719 21.980469 C 7.511719 21.4375 7.957031 21 8.511719 21 C 9.0625 21 9.511719 21.4375 9.511719 21.980469 C 9.511719 22.519531 9.0625 22.957031 8.511719 22.957031 Z M 8.511719 19.457031 C 7.957031 19.457031 7.511719 19.019531 7.511719 18.480469 C 7.511719 17.9375 7.957031 17.5 8.511719 17.5 C 9.0625 17.5 9.511719 17.9375 9.511719 18.480469 C 9.511719 19.019531 9.0625 19.457031 8.511719 19.457031 Z M 8.511719 16.148438 C 7.957031 16.148438 7.511719 15.710938 7.511719 15.167969 C 7.511719 14.628906 7.957031 14.191406 8.511719 14.191406 C 9.0625 14.191406 9.511719 14.628906 9.511719 15.167969 C 9.511719 15.710938 9.0625 16.148438 8.511719 16.148438 Z M 8.511719 16.148438 "/>
</svg>
